# xmcd CD database file
#
# Track frame offsets:
#	150
#	10035
#	32775
#	50065
#	66887
#	78284
#	92754
#	115052
#	127647
#	145444
#	161477
#	173647
#	193532
#	215794
#	229707
#
# Disc length: 3370 seconds
#
# Revision: 1
# Processed by: cddbd v1.5.2PL0 Copyright (c) Steve Scherf et al.
# Submitted via: CDex 1.70beta3
#
DISCID=c40d280f
DTITLE=I LOVE JAZZ - BIG BAND-元気がもらえるビッグ・バンド-
DYEAR=2009
DGENRE=Jazz
TTITLE0=テイク・ファイブ/ニール・ヘフティ
TTITLE1=モーニン/マーティ・ペイチ
TTITLE2=フォー・ブラザーズ/マンハッタン・トランスファー
TTITLE3=ソフィスティケイテッド・レディ/リンダ・ロンシュタット
TTITLE4=サテン・ドール/デューク・エリントン
TTITLE5=スイングしなけりゃ意味がないね/マーティ・ペイチ
TTITLE6=ワン＆トゥー・オクロック・ジャンプ/ニール・ヘフティ
TTITLE7=オール・ザ・シングス・ユー・アー/クリス・コナー
TTITLE8=愛さずにはいられない/デューク・エリントン
TTITLE9=イッツ・オール・ライト・ウィズ・ミー/マーティ・ペイチ
TTITLE10=誰も奪えぬこの想い/バーニー・ケッセル
TTITLE11=グッド・モーニング・ハートエイク/クリス・コナー
TTITLE12=ブギティー・ブギティー/ミルト・ジャクソン
TTITLE13=タキシード・ジャンクション/マンハッタン・トランスファー
TTITLE14=リル・ダーリン/ニール・ヘフティ
EXTD=YEAR: 2009
EXTT0=
EXTT1=
EXTT2=
EXTT3=
EXTT4=
EXTT5=
EXTT6=
EXTT7=
EXTT8=
EXTT9=
EXTT10=
EXTT11=
EXTT12=
EXTT13=
EXTT14=
PLAYORDER=
